<?xml version="1.0" encoding="UTF-8" standalone="no" ?>
<!DOCTYPE svg PUBLIC "-//W3C//DTD SVG 1.1//EN" "http://www.w3.org/Graphics/SVG/1.1/DTD/svg11.dtd">
<svg xmlns="http://www.w3.org/2000/svg" xmlns:xlink="http://www.w3.org/1999/xlink" version="1.1" width="640" height="640" viewBox="0 0 640 640" xml:space="preserve">
<desc>Created with Fabric.js 4.6.0</desc>
<defs>
</defs>
<g transform="matrix(4.85 0 0 4.85 320 320)" id="cwQHqSzx2pXqGeBtDjKJY"  >
<path style="stroke: rgb(142,28,229); stroke-width: 0; stroke-dasharray: none; stroke-linecap: butt; stroke-dashoffset: 0; stroke-linejoin: miter; stroke-miterlimit: 4; fill: rgb(255,255,255); fill-rule: nonzero; opacity: 1;" vector-effect="non-scaling-stroke"  transform=" translate(0, 0)" d="M 0 -62.25681 C 34.36576 -62.25681 62.25681 -34.36576 62.25681 0 C 62.25681 34.36576 34.36576 62.25681 0 62.25681 C -34.36576 62.25681 -62.25681 34.36576 -62.25681 0 C -62.25681 -34.36576 -34.36576 -62.25681 0 -62.25681 z" stroke-linecap="round" />
</g>
<g transform="matrix(0.18 0 0 0.18 320 312.53)" id="4UQ-Y8CqtU2Ew_MJdJX2v"  >
<g style="" vector-effect="non-scaling-stroke"   >
		<g transform="matrix(3.07 0 0 3.07 -620.5 9.3)" id="tUgNmZ94chu85xMDr8ak5"  >
<path style="stroke: none; stroke-width: 1; stroke-dasharray: none; stroke-linecap: butt; stroke-dashoffset: 0; stroke-linejoin: miter; stroke-miterlimit: 4; fill: rgb(57,224,155); fill-rule: nonzero; opacity: 1;" vector-effect="non-scaling-stroke"  transform=" translate(-197.4, -337.34)" d="M 297.53 18.87 C 284.03999999999996 -5.390000000000001 248.98999999999998 -5.390000000000001 235.50999999999996 18.87 L 3.599999999999966 439.45 C -7.190000000000033 461.02 8.989999999999966 485.28 33.25999999999996 485.28 L 189.65999999999997 485.28 L 189.65999999999997 644.3399999999999 C 189.65999999999997 660.5199999999999 203.14999999999998 673.9999999999999 219.32999999999998 673.9999999999999 L 311.01 673.9999999999999 C 327.19 673.9999999999999 340.67 660.5199999999999 340.67 644.3399999999999 L 340.67 485.2799999999999 L 297.53000000000003 485.2799999999999 C 278.65000000000003 485.2799999999999 265.17 471.7999999999999 262.47 455.6199999999999 C 262.47 450.2299999999999 262.47 444.8399999999999 265.17 439.3899999999999 L 394.61 204.83999999999986 z" stroke-linecap="round" />
</g>
		<g transform="matrix(3.07 0 0 3.07 618.3 9.3)" id="gp4i_eig4XArnPQvGXL5L"  >
<path style="stroke: none; stroke-width: 1; stroke-dasharray: none; stroke-linecap: butt; stroke-dashoffset: 0; stroke-linejoin: miter; stroke-miterlimit: 4; fill: rgb(40,191,123); fill-rule: nonzero; opacity: 1;" vector-effect="non-scaling-stroke"  transform=" translate(-601.25, -337.34)" d="M 502.47 18.87 C 515.96 -5.390000000000001 551.01 -5.390000000000001 564.49 18.87 L 796.4 439.45 C 807.1899999999999 461.02 791.01 485.28 766.74 485.28 L 613.03 485.28 L 613.03 644.3399999999999 C 613.03 660.5199999999999 599.55 673.9999999999999 583.3399999999999 673.9999999999999 L 486.2899999999999 673.9999999999999 C 470.1099999999999 673.9999999999999 456.6299999999999 660.5199999999999 456.6299999999999 644.3399999999999 L 456.6299999999999 485.2799999999999 L 499.77999999999986 485.2799999999999 C 518.6499999999999 485.2799999999999 532.1299999999999 471.7999999999999 534.8299999999998 455.6199999999999 C 534.8299999999998 450.2299999999999 534.8299999999998 444.8399999999999 532.1299999999998 439.3899999999999 L 402.69999999999976 204.89999999999986 z" stroke-linecap="round" />
</g>
</g>
</g>
</svg>