<?xml version="1.0" encoding="UTF-8"?>
<svg id="Layer_1" xmlns="http://www.w3.org/2000/svg" viewBox="0 0 2493.74 2493.74">
  <defs>
    <style>
      .cls-1 {
        opacity: .5;
      }

      .cls-1, .cls-2 {
        fill: #231f20;
        stroke: #231f20;
        stroke-miterlimit: 10;
      }

      .cls-2 {
        opacity: .3;
      }
    </style>
  </defs>
  <path class="cls-1" d="M1544.42,448.57h0s0,0,0,0c-165.33,0-299.36,134.03-299.36,299.36h0c0-165.33-134.03-299.36-299.36-299.36h0c-165.33,0-299.36,134.03-299.36,299.36v997.87c0,165.33,134.03,299.36,299.36,299.36h0V747.93h0c0,165.33,134.03,299.36,299.36,299.36h0c165.33,0,299.36-134.03,299.36-299.36h0s0,608.05,0,608.05v689.18h0c165.33,0,299.36-134.03,299.36-299.36v-997.87c0-165.33-134.03-299.36-299.36-299.36Z"/>
  <path class="cls-1" d="M1544.42,448.57h0s0,0,0,0c-165.33,0-299.36,134.03-299.36,299.36h0c0-165.33-134.03-299.36-299.36-299.36h0c-165.33,0-299.36,134.03-299.36,299.36v747.73c89.48,64.39,190.44,114.71,299.36,147.56v-895.29h0c0,165.33,134.03,299.36,299.36,299.36h0c165.33,0,299.36-134.03,299.36-299.36v895.29c108.92-32.86,209.88-83.18,299.36-147.56v-747.73c0-165.33-134.03-299.36-299.36-299.36Z"/>
  <path class="cls-1" d="M1544.42,450.55h0s0,0,0,0c-165.33,0-299.36,134.03-299.36,299.36h0c0-165.33-134.03-299.36-299.36-299.36h0c-161.77,0-293.55,128.32-299.15,288.72,5.59,207.83,124.48,388.38,299.15,486.07v-475.43h0c0,165.33,134.03,299.36,299.36,299.36h0c165.33,0,299.36-134.03,299.36-299.36v475.43c174.67-97.69,293.56-278.25,299.15-486.07-5.61-160.4-137.38-288.72-299.15-288.72Z"/>
  <path class="cls-1" d="M1549.91,724.09c0-99.83-42.31-189.12-108.85-248.69-114.4,42.09-196.01,152.03-196.01,281.03h0c0-129.01-81.6-238.95-196.01-281.03-66.54,59.57-108.85,148.86-108.85,248.69,0,21.05,1.9,41.63,5.5,61.57v-29.22h0c0,15.97,1.26,31.65,3.67,46.94,33.22,141.01,153,245.43,295.69,245.43s262.46-104.42,295.69-245.43c2.41-15.3,3.67-30.97,3.67-46.95v29.23c3.59-19.94,5.5-40.52,5.5-61.57Z"/>
  <circle class="cls-2" cx="1246.87" cy="1246.87" r="1246.37"/>
</svg>