<?xml version="1.0" encoding="UTF-8" standalone="no" ?>
<!DOCTYPE svg PUBLIC "-//W3C//DTD SVG 1.1//EN" "http://www.w3.org/Graphics/SVG/1.1/DTD/svg11.dtd">
<svg xmlns="http://www.w3.org/2000/svg" xmlns:xlink="http://www.w3.org/1999/xlink" version="1.1" width="640" height="640" viewBox="0 0 640 640" xml:space="preserve">
<desc>Created with Fabric.js 4.6.0</desc>
<defs>
</defs>
<g transform="matrix(4.85 0 0 4.85 320 320)" id="cwQHqSzx2pXqGeBtDjKJY"  >
<path style="stroke: rgb(142,28,229); stroke-width: 0; stroke-dasharray: none; stroke-linecap: butt; stroke-dashoffset: 0; stroke-linejoin: miter; stroke-miterlimit: 4; fill: rgb(255,255,255); fill-rule: nonzero; opacity: 1;" vector-effect="non-scaling-stroke"  transform=" translate(0, 0)" d="M 0 -62.25681 C 34.36576 -62.25681 62.25681 -34.36576 62.25681 0 C 62.25681 34.36576 34.36576 62.25681 0 62.25681 C -34.36576 62.25681 -62.25681 34.36576 -62.25681 0 C -62.25681 -34.36576 -34.36576 -62.25681 0 -62.25681 z" stroke-linecap="round" />
</g>
<g transform="matrix(1 0 0 1 320 312.53)" id="1s_TyFEezruOh73mbAHNB"  >
<path style="stroke: rgb(0,0,0); stroke-width: 0; stroke-dasharray: none; stroke-linecap: butt; stroke-dashoffset: 0; stroke-linejoin: miter; stroke-miterlimit: 4; fill: rgb(18,136,255); fill-rule: nonzero; opacity: 1;" vector-effect="non-scaling-stroke"  transform=" translate(-139.22, -206.59)" d="M 139.21179 413.17346 C 63.73268 413.17346 0 352.82750999999996 0 278.92088 C 0 205.01425 139.21179 0 139.21179 0 z M 139.22 0 C 139.22 0 278.43179 205.01425 278.43179 278.92088 C 278.43179 352.82751 214.69910999999996 413.17346 139.21999999999997 413.17346 z" stroke-linecap="round" />
</g>
</svg>